<?xml version="1.0" encoding="iso-8859-1"?>
<!-- Generator: Adobe Illustrator 21.0.0, SVG Export Plug-In . SVG Version: 6.00 Build 0)  -->
<svg xmlns="http://www.w3.org/2000/svg" xmlns:xlink="http://www.w3.org/1999/xlink" version="1.1" id="Capa_1" x="0px" y="0px" viewBox="0 0 512 512" style="enable-background:new 0 0 512 512;" xml:space="preserve" width="512" height="512">
<g>
	<line x1="255.998" y1="512" x2="255.998" y2="512"/>
	<path fill = "white" d="M256,0C151.233,0,66,85.037,66,189.562c0,52.776,27.479,120.563,81.675,201.477   c40.313,60.188,80.951,105.782,85.452,110.783C238.949,508.29,247.285,512,255.998,512c8.715,0,17.053-3.71,22.875-10.178   c4.499-4.998,45.122-50.57,85.452-110.783C418.521,310.125,446,242.338,446,189.561C445.998,85.037,360.765,0,256,0z    M339.4,374.344c-39.843,59.485-81.088,105.478-82.824,107.407c-0.067,0.075-0.225,0.249-0.578,0.249   c-0.35,0-0.507-0.174-0.573-0.249c-1.737-1.93-42.999-47.947-82.825-107.408C122.488,299.525,96,235.629,96,189.562   C96,101.579,167.776,30,256,30c88.223,0,159.998,71.579,160,159.562C416,235.629,389.512,299.525,339.4,374.344z"/>
	<path fill = "white" d="M370.918,160.806c-4.259-13.106-15.915-21.576-29.696-21.576h-41.527c-0.532,0-1-0.34-1.165-0.847L285.697,98.89v0   c-4.259-13.107-15.916-21.576-29.698-21.576c-13.781,0-25.438,8.47-29.695,21.576l-12.833,39.494   c-0.165,0.506-0.633,0.847-1.166,0.847h-41.527c-13.781,0-25.438,8.469-29.697,21.576c-4.258,13.107,0.194,26.811,11.343,34.911   l33.595,24.408c0.431,0.313,0.61,0.864,0.446,1.371l-12.833,39.494c-4.259,13.107,0.194,26.81,11.343,34.911   c11.15,8.101,25.559,8.101,36.708,0l33.595-24.408c0.432-0.313,1.01-0.313,1.441,0l33.596,24.409   c5.574,4.05,11.964,6.076,18.354,6.076s12.779-2.025,18.354-6.076c11.149-8.101,15.602-21.804,11.343-34.911l-12.832-39.494   c-0.164-0.507,0.015-1.058,0.444-1.371l33.596-24.409C370.725,187.617,375.177,173.914,370.918,160.806z M341.941,171.447   l-33.597,24.409c-10.977,7.976-15.535,22.005-11.342,34.911l12.832,39.495c0.147,0.454,0.274,0.846-0.445,1.369   c-0.719,0.523-1.054,0.28-1.44,0l-33.595-24.408c-10.978-7.977-25.73-7.976-36.708,0l-33.596,24.409c-0.387,0.28-0.72,0.523-1.44,0   c-0.72-0.523-0.593-0.916-0.445-1.37l12.833-39.495c4.192-12.905-0.366-26.935-11.343-34.911l-33.596-24.409   c-0.386-0.281-0.72-0.523-0.445-1.37c0.275-0.847,0.688-0.847,1.165-0.847h41.527c13.569,0,25.504-8.671,29.697-21.576   l12.832-39.495c0.147-0.454,0.275-0.846,1.165-0.846c0.891,0,1.019,0.393,1.166,0.847l12.832,39.493   c4.192,12.906,16.126,21.577,29.696,21.577h41.527c0.478,0,0.89,0,1.165,0.846C342.661,170.923,342.328,171.166,341.941,171.447z"/>
</g>















</svg>
